<svg height="512" width="512" xmlns="http://www.w3.org/2000/svg"><path d="M349.96 244.083c-5.998-62.967-61.932-112.316-130.038-112.316-72.114 0-130.567 55.305-130.567 123.543 0 6.617.551 13.119 1.61 19.447-45.345 5.346-80.561 44.912-80.561 92.912 0 51.639 40.775 93.514 91.075 93.514h333.858c36.605 0 66.26-26.482 66.26-59.162 0-29.539-24.246-54.033-55.943-58.449 0-51.656-40.582-99.615-90.883-99.615a89.988 89.988 0 00-4.811.126" fill="#D8EAEF"/><path d="M301.095 244.083c-5.135-62.967-52.466-113.32-110.625-109.16-36.581 2.615-101.115 52.148-101.115 120.387 0 6.617 1.61 19.447 1.61 19.447-42.076 3.781-80.561 44.912-80.561 92.912 0 51.639 34.907 93.514 77.968 93.514h285.811c31.34 0 56.727-26.482 56.727-59.162 0-29.539-20.756-54.033-47.893-58.449 0-51.656-34.742-99.615-77.805-99.615a65.913 65.913 0 00-4.117.126c-22.807 1.434-43.016 14.605-56.506 34.576" fill="#FFF"/><path d="M435.337 461.182c36.605 0 66.26-26.482 66.26-59.162 0-29.539-24.246-54.033-55.943-58.449h0c0-51.656-45.395-99.488-95.693-99.488-1.615 0 1.582-.084 0 0-26.641 1.434-50.246 14.605-66.006 34.576" fill="none" stroke="#354F65" stroke-linecap="round" stroke-linejoin="round" stroke-miterlimit="10" stroke-width="13"/><path d="M349.96 244.083c-5.998-62.967-61.932-112.316-130.038-112.316-72.114 0-130.567 55.305-130.567 123.543 0 6.617.551 13.119 1.61 19.447h0c-45.345 5.346-80.561 44.912-80.561 92.912 0 51.639 40.775 93.514 91.075 93.514h333.858M302.468 121.677c11.436-5.185 24.136-8.072 37.51-8.072 50.22 0 90.932 40.712 90.932 90.932 0 10.913-1.923 21.377-5.447 31.072M341.001 50.818v35.97m151.317 117.75H456.35m-8.296-108.376l-25.434 25.433" fill="none" stroke="#354F65" stroke-linecap="round" stroke-linejoin="round" stroke-miterlimit="10" stroke-width="13"/></svg>