<svg width="66" height="65" fill="none" xmlns="http://www.w3.org/2000/svg"><g clip-path="url(#clip0)"><path fill="#222" d="M.997 0h65v65h-65z"/><path d="M7.358 31c0-.518.18-.957.542-1.318a1.819 1.819 0 011.333-.557h7.5V27.25H7.358v-5.625h11.25c0 .527-.186.972-.557 1.333-.371.361-.81.542-1.318.542h-7.5v1.875h9.375V31H7.358zm15.45 0c-.528 0-.972-.18-1.333-.542a1.843 1.843 0 01-.542-1.333h11.25c0 .527-.186.972-.557 1.333-.371.361-.81.542-1.318.542h-7.5zm0-3.75c-.528 0-.972-.18-1.333-.542a1.843 1.843 0 01-.542-1.333h11.25c0 .527-.186.972-.557 1.333-.371.361-.81.542-1.318.542h-7.5zm0-3.75c-.528 0-.972-.18-1.333-.542a1.843 1.843 0 01-.542-1.333h11.25c0 .527-.186.972-.557 1.333-.371.361-.81.542-1.318.542h-7.5zm11.7 7.5v-1.875l2.812-2.813-.937-.937-1.875-1.875v-1.875h1.875v.938l3.75 3.75-3.75 3.75V31h-1.875zm9.375 0v-.938l-3.75-3.75 3.75-3.75v-.937h1.875V23.5l-1.875 1.875h-.015l-.923.938 2.813 2.812V31h-1.875zm8.887 0v-2.813L48.083 23.5v-1.875h1.875v.938l3.75 3.75 3.75-3.75v-.938h1.875V23.5l-4.688 4.688V31H52.77zM9.233 48c-.528 0-.972-.18-1.333-.542a1.843 1.843 0 01-.542-1.333v-3.75h1.875v2.813c0 .263.088.488.263.673.186.176.41.264.674.264h8.438c0 .527-.186.972-.557 1.333-.371.361-.81.542-1.318.542h-7.5zm-1.875-7.5v-1.875h11.25c0 .527-.186.972-.557 1.333-.371.361-.81.542-1.318.542H7.358zM20.933 48v-5.625h11.25V48h-1.875v-3.75h-7.5V48h-1.875zm1.875-7.5c-.528 0-.972-.18-1.333-.542a1.843 1.843 0 01-.542-1.333h11.25c0 .527-.186.972-.557 1.333-.371.361-.81.542-1.318.542h-7.5zm11.7 7.5v-5.625h8.437a.926.926 0 00.938-.938V40.5h-7.5c-.528 0-.972-.18-1.333-.542a1.843 1.843 0 01-.542-1.333h11.25v3.75c0 .527-.186.972-.557 1.333-.371.361-.81.542-1.318.542h-1.875l3.75 3.75h-2.813l-3.75-3.75h-2.812V48h-1.875zm13.575 0c0-.518.18-.957.542-1.318a1.818 1.818 0 011.333-.557h7.5V44.25h-9.375v-5.625h11.25c0 .527-.186.972-.557 1.333-.371.361-.81.542-1.318.542h-7.5v1.875h9.375V48h-11.25z" fill="#fff"/></g><defs><clipPath id="clip0"><path fill="#fff" transform="translate(.997)" d="M0 0h64.594v65H0z"/></clipPath></defs></svg>